<svg xmlns="http://www.w3.org/2000/svg" xmlns:xlink="http://www.w3.org/1999/xlink" width="370" zoomAndPan="magnify" viewBox="0 0 277.5 284.999983" height="380" preserveAspectRatio="xMidYMid meet" version="1.0"><path fill="#2b1200" d="M 209.566406 87.601562 C 169.566406 127.785156 99.773438 62.714844 101.089844 53.910156 C 102.402344 45.101562 116.828125 48.347656 116.828125 48.347656 C 108.5 44.484375 98.847656 31.421875 105.578125 27.789062 C 112.3125 24.160156 125.851562 29.644531 125.851562 29.644531 C 118.8125 21.914062 114.714844 8.777344 123.691406 8.316406 C 132.667969 7.851562 134.910156 14.269531 161.910156 15.890625 C 188.910156 17.511719 190.464844 29.859375 190.464844 29.859375 C 190.464844 29.859375 202.347656 24.242188 212.511719 44.171875 C 225.191406 69.054688 209.566406 87.601562 209.566406 87.601562 Z M 209.566406 87.601562 " fill-opacity="1" fill-rule="nonzero"/><path fill="#f7ba9c" d="M 203.050781 73.914062 L 203.050781 90.851562 C 203.050781 99.398438 200.523438 107.386719 196.171875 114.105469 C 190.773438 122.460938 182.554688 128.847656 172.886719 131.910156 C 168.796875 133.203125 164.445312 133.90625 159.933594 133.90625 C 154.105469 133.90625 148.527344 132.730469 143.441406 130.613281 C 127.855469 124.113281 116.824219 108.707031 116.824219 90.851562 L 116.824219 73.914062 C 116.824219 72.472656 116.894531 71.050781 117.035156 69.648438 C 117.914062 60.839844 121.476562 52.796875 126.894531 46.34375 C 128.21875 44.761719 129.652344 43.28125 131.1875 41.898438 C 138.828125 35.042969 148.914062 30.859375 159.933594 30.859375 C 171.796875 30.859375 182.570312 35.703125 190.382812 43.503906 C 198.203125 51.3125 203.050781 62.074219 203.050781 73.914062 Z M 203.050781 73.914062 " fill-opacity="1" fill-rule="nonzero"/><path fill="#f7eeff" d="M 262.644531 276.074219 L 84.992188 276.074219 L 86.511719 251.492188 C 31.800781 276.992188 3.660156 257.472656 -2.3125 232.347656 C -2.3125 232.335938 -2.316406 232.320312 -2.316406 232.304688 C -2.785156 230.507812 -3.085938 228.671875 -3.257812 226.820312 C -3.453125 225.035156 -3.542969 223.230469 -3.523438 221.433594 C -3.511719 220.132812 -3.347656 218.824219 -3.039062 217.515625 C -2.457031 212.988281 -0.9375 208.484375 0.453125 203.832031 C 17.367188 147.121094 69.742188 174.855469 69.742188 174.855469 C 71.09375 173.480469 72.457031 172.15625 73.824219 170.882812 C 104.253906 142.707031 139.667969 140.171875 178.765625 140.449219 C 178.765625 140.449219 241.75 140.445312 266.976562 179.394531 C 272.304688 187.621094 274.71875 197.722656 275.335938 208.253906 C 277.214844 240.160156 262.644531 276.074219 262.644531 276.074219 Z M 262.644531 276.074219 " fill-opacity="1" fill-rule="nonzero"/><path fill="#d5bbf2" d="M 262.644531 276.074219 L 164.929688 276.074219 C 247.035156 276.074219 275.328125 208.253906 275.328125 208.253906 L 275.335938 208.253906 C 277.214844 240.160156 262.644531 276.074219 262.644531 276.074219 Z M 0.453125 203.832031 C -1.234375 208.386719 -2.457031 212.988281 -3.039062 217.515625 C -3.347656 218.824219 -3.511719 220.132812 -3.523438 221.433594 C -3.542969 223.230469 -3.453125 225.035156 -3.257812 226.820312 C -3.085938 228.671875 -2.785156 230.507812 -2.316406 232.304688 C -2.316406 232.320312 -2.3125 232.335938 -2.3125 232.347656 C 3.660156 257.472656 31.800781 276.992188 86.511719 251.492188 L 88.523438 220.9375 C 88.523438 220.9375 3.199219 262.574219 0.453125 203.832031 Z M 180.402344 177.953125 C 177.753906 176.574219 176.339844 175.085938 176.339844 175.085938 L 156.503906 185.746094 L 178.457031 170.023438 L 161.746094 140.765625 L 139.308594 159.722656 L 147.097656 192.488281 L 151.371094 189.425781 L 129.761719 276.078125 L 152.253906 276.078125 L 153.285156 205.058594 L 164.929688 190.429688 Z M 75.703125 199.023438 C 75.703125 199.023438 86.675781 185.636719 73.824219 170.882812 C 72.457031 172.15625 71.09375 173.480469 69.742188 174.855469 C 69.742188 174.855469 78.492188 179.011719 75.703125 199.023438 Z M 75.703125 199.023438 " fill-opacity="1" fill-rule="nonzero"/><path fill="#f7ba9c" d="M 204.609375 144.777344 L 171.546875 165.285156 L 155.160156 175.449219 L 152.121094 163.828125 L 145.734375 139.390625 L 139.308594 114.796875 L 195.324219 99.804688 L 203.023438 137.101562 Z M 204.609375 144.777344 " fill-opacity="1" fill-rule="nonzero"/><path fill="#2b1200" d="M 114.105469 67.125 C 113.894531 56.789062 120.585938 32.734375 146.273438 30.867188 C 165.886719 29.4375 178.152344 29.957031 178.152344 29.957031 L 209.566406 57.46875 L 202.292969 83.859375 L 196.972656 76.4375 C 174.90625 68.132812 181.402344 43.875 181.402344 43.875 C 161.285156 69.671875 114.105469 67.125 114.105469 67.125 Z M 114.105469 67.125 " fill-opacity="1" fill-rule="nonzero"/><path fill="#f7ba9c" d="M 221.730469 94.511719 C 220.972656 104.144531 211.792969 113.835938 201.476562 113.023438 C 191.160156 112.210938 183.613281 101.207031 184.371094 91.570312 C 184.796875 86.183594 187.796875 81.570312 192.160156 78.695312 C 195.597656 76.433594 199.882812 75.246094 204.429688 75.601562 C 208.859375 75.949219 212.808594 77.710938 215.824219 80.375 C 219.828125 83.902344 222.164062 89.015625 221.730469 94.511719 Z M 221.730469 94.511719 " fill-opacity="1" fill-rule="nonzero"/><path fill="#2b1200" d="M 172.886719 131.910156 C 165.824219 138.246094 156.6875 142.289062 146.648438 142.871094 L 143.441406 130.613281 C 148.527344 132.730469 154.105469 133.90625 159.933594 133.90625 C 164.445312 133.90625 168.796875 133.203125 172.886719 131.910156 Z M 172.039062 74.835938 C 169.546875 74.648438 167.378906 76.511719 167.1875 78.992188 C 167 81.480469 168.867188 83.648438 171.351562 83.835938 C 173.84375 84.023438 176.015625 82.160156 176.203125 79.675781 C 176.390625 77.1875 174.527344 75.023438 172.039062 74.835938 Z M 143.222656 73.859375 C 140.734375 73.671875 138.5625 75.535156 138.375 78.019531 C 138.1875 80.507812 140.054688 82.671875 142.539062 82.859375 C 145.03125 83.046875 147.199219 81.183594 147.386719 78.703125 C 147.574219 76.222656 145.710938 74.046875 143.222656 73.859375 Z M 173.304688 42.058594 C 173.71875 49.890625 169.28125 56.84375 167.734375 59.78125 C 166.1875 62.714844 169.230469 67.765625 177.949219 59.78125 C 186.664062 51.796875 186.71875 42.058594 186.71875 42.058594 Z M 206.125 103.882812 L 206.191406 103.554688 C 206.699219 101.027344 205.589844 98.394531 203.355469 96.84375 C 200.742188 95.027344 201.355469 90.84375 201.359375 90.800781 C 201.367188 90.773438 201.367188 90.742188 201.367188 90.710938 C 201.367188 87.8125 203.730469 85.453125 206.632812 85.453125 C 209.539062 85.453125 211.902344 87.8125 211.902344 90.710938 C 211.902344 91.042969 212.175781 91.316406 212.507812 91.316406 C 212.839844 91.316406 213.113281 91.042969 213.113281 90.710938 C 213.113281 87.148438 210.210938 84.242188 206.632812 84.242188 C 203.078125 84.242188 200.179688 87.117188 200.15625 90.664062 C 200.074219 91.207031 199.5625 95.679688 202.664062 97.835938 C 204.5 99.105469 205.414062 101.261719 205.003906 103.3125 L 204.9375 103.640625 C 204.871094 103.96875 205.082031 104.289062 205.410156 104.355469 C 205.453125 104.363281 205.488281 104.367188 205.53125 104.367188 C 205.808594 104.375 206.0625 104.171875 206.125 103.882812 Z M 153.007812 92.644531 C 153.316406 92.515625 153.460938 92.160156 153.332031 91.851562 L 153.304688 91.777344 C 152.230469 89.175781 153.402344 86.234375 155.964844 85.070312 L 159.054688 83.671875 C 159.359375 83.53125 159.496094 83.175781 159.359375 82.875 C 159.21875 82.570312 158.863281 82.429688 158.558594 82.570312 L 155.46875 83.96875 C 152.304688 85.398438 150.859375 89.035156 152.183594 92.242188 L 152.210938 92.320312 C 152.308594 92.550781 152.535156 92.695312 152.769531 92.695312 C 152.847656 92.683594 152.929688 92.671875 153.007812 92.644531 Z M 153.007812 92.644531 " fill-opacity="1" fill-rule="nonzero"/><path fill="#f7eeff" d="M 169.164062 94.9375 C 170.898438 94.710938 172.402344 96.160156 172.226562 97.898438 C 171.558594 104.421875 166.472656 109.871094 159.6875 110.746094 C 152.890625 111.625 146.589844 107.652344 144.273438 101.515625 C 143.65625 99.882812 144.738281 98.101562 146.472656 97.878906 Z M 190.523438 93.527344 L 191.34375 90.179688 C 191.601562 89.109375 190.949219 88.03125 189.875 87.769531 L 182.480469 85.964844 C 181.410156 85.707031 180.328125 86.359375 180.070312 87.429688 L 179.25 90.777344 C 178.988281 91.851562 179.644531 92.925781 180.71875 93.1875 L 188.113281 94.992188 C 189.183594 95.25 190.261719 94.597656 190.523438 93.527344 Z M 135.78125 72.074219 L 134.890625 68.746094 C 134.605469 67.679688 133.507812 67.050781 132.449219 67.335938 L 125.097656 69.296875 C 124.027344 69.582031 123.398438 70.675781 123.683594 71.734375 L 124.574219 75.066406 C 124.859375 76.128906 125.957031 76.757812 127.015625 76.476562 L 134.371094 74.515625 C 135.4375 74.234375 136.066406 73.140625 135.78125 72.074219 Z M 135.78125 72.074219 " fill-opacity="1" fill-rule="nonzero"/><path fill="#d5bbf2" d="M 158.164062 102.84375 C 157.863281 102.84375 157.601562 102.617188 157.566406 102.308594 C 157.523438 101.976562 157.757812 101.671875 158.09375 101.632812 L 171.621094 99.929688 C 171.960938 99.886719 172.257812 100.125 172.296875 100.457031 C 172.339844 100.789062 172.105469 101.09375 171.769531 101.136719 L 158.242188 102.835938 C 158.21875 102.84375 158.1875 102.84375 158.164062 102.84375 Z M 192.742188 246.734375 C 193.730469 245.949219 194.347656 244.820312 194.488281 243.5625 L 198.554688 207.113281 C 198.695312 205.859375 198.335938 204.625 197.546875 203.636719 C 196.761719 202.648438 195.632812 202.03125 194.371094 201.894531 L 171.542969 199.351562 C 168.945312 199.066406 166.601562 200.9375 166.316406 203.527344 L 162.25 239.980469 C 161.957031 242.570312 163.835938 244.914062 166.433594 245.195312 L 189.261719 247.738281 C 189.4375 247.757812 189.621094 247.769531 189.796875 247.769531 C 190.863281 247.769531 191.894531 247.40625 192.742188 246.734375 Z M 171.414062 200.550781 L 194.246094 203.09375 C 195.179688 203.195312 196.015625 203.65625 196.601562 204.394531 C 197.191406 205.125 197.457031 206.046875 197.355469 206.976562 L 193.289062 243.429688 C 193.070312 245.355469 191.324219 246.753906 189.398438 246.535156 L 166.566406 243.992188 C 164.636719 243.78125 163.242188 242.039062 163.457031 240.105469 L 167.523438 203.65625 C 167.722656 201.863281 169.25 200.527344 171.019531 200.527344 C 171.152344 200.53125 171.28125 200.539062 171.414062 200.550781 Z M 186.4375 276.242188 C 201.269531 224.257812 240.21875 189.164062 240.613281 188.820312 C 240.859375 188.59375 240.882812 188.214844 240.660156 187.964844 C 240.4375 187.71875 240.054688 187.691406 239.804688 187.917969 C 239.410156 188.269531 200.203125 223.582031 185.273438 275.917969 C 185.183594 276.238281 185.371094 276.570312 185.695312 276.667969 C 185.746094 276.683594 185.800781 276.691406 185.863281 276.691406 C 186.117188 276.679688 186.359375 276.507812 186.4375 276.242188 Z M 186.4375 276.242188 " fill-opacity="1" fill-rule="nonzero"/><path fill="#f76f6f" d="M 186.949219 170.351562 L 161.535156 188.921875 L 150.402344 205.054688 L 146.273438 276.074219 L 107.484375 276.074219 L 138.222656 203.820312 L 139.15625 184.714844 L 136.722656 169.886719 C 136.339844 167.574219 137.910156 165.394531 140.21875 165.019531 C 142.527344 164.636719 144.714844 166.203125 145.089844 168.511719 L 147.351562 182.269531 L 155.304688 182.972656 L 181.941406 163.511719 C 183.832031 162.132812 186.488281 162.542969 187.871094 164.429688 C 189.25 166.320312 188.839844 168.972656 186.949219 170.351562 Z M 186.949219 170.351562 " fill-opacity="1" fill-rule="nonzero"/><path fill="#f7eeff" d="M 214.234375 160.550781 L 183.050781 179.339844 C 181.238281 180.429688 178.882812 179.757812 177.929688 177.871094 L 171.554688 165.285156 L 155.164062 175.449219 L 170 157.632812 L 203.574219 136.769531 C 205.960938 135.285156 209.113281 136.339844 210.125 138.960938 L 216.230469 154.757812 C 217.058594 156.914062 216.214844 159.351562 214.234375 160.550781 Z M 145.734375 139.390625 L 136.179688 145.8125 C 134.726562 146.792969 133.773438 148.355469 133.574219 150.097656 L 131.015625 172.3125 C 130.761719 174.523438 133.199219 176.035156 135.070312 174.824219 L 148.394531 166.230469 L 155.160156 175.449219 L 150.078125 156.023438 Z M 145.734375 139.390625 " fill-opacity="1" fill-rule="nonzero"/><path fill="#f7ba9c" d="M 94.949219 135.207031 C 88.085938 144.058594 82.699219 150.96875 72.105469 154.160156 L 58.066406 201.0625 C 55.402344 210.308594 46.144531 216.136719 36.691406 214.332031 C 36.503906 214.296875 36.308594 214.261719 36.121094 214.21875 C 23.132812 211.5 16.5625 196.910156 23.066406 185.355469 L 46.296875 143.023438 C 46.296875 143.023438 38.792969 127.234375 41.503906 118.816406 C 44.210938 110.394531 53.492188 113.386719 53.492188 113.386719 C 53.492188 113.386719 54.734375 109.535156 57.902344 107.296875 C 61.074219 105.058594 65.484375 106.765625 65.484375 106.765625 C 65.484375 106.765625 68.890625 96.714844 78.085938 103.429688 C 78.085938 103.429688 87.457031 88.453125 94.265625 117.894531 C 94.265625 117.894531 109.585938 107.230469 114.378906 117.894531 C 119.175781 128.5625 101.832031 126.320312 94.949219 135.207031 Z M 94.949219 135.207031 " fill-opacity="1" fill-rule="nonzero"/><path fill="#2b1200" d="M 215.453125 161.210938 L 185.222656 180.140625 C 184.335938 180.691406 183.316406 180.980469 182.292969 180.980469 C 181.816406 180.980469 181.328125 180.917969 180.855469 180.785156 C 179.378906 180.386719 178.128906 179.382812 177.421875 178.027344 L 174.621094 172.675781 C 174.46875 172.378906 174.578125 172.015625 174.875 171.859375 C 175.171875 171.699219 175.535156 171.816406 175.691406 172.113281 L 178.492188 177.464844 C 179.050781 178.535156 180.007812 179.304688 181.171875 179.617188 C 182.339844 179.933594 183.546875 179.757812 184.578125 179.109375 L 214.808594 160.183594 C 216.472656 159.140625 217.125 157.011719 216.332031 155.21875 L 211.9375 145.328125 C 211.804688 145.027344 211.9375 144.664062 212.246094 144.527344 C 212.554688 144.390625 212.914062 144.527344 213.046875 144.835938 L 217.441406 154.726562 C 218.472656 157.066406 217.621094 159.847656 215.453125 161.210938 Z M 145.1875 168.273438 C 145 168.003906 144.617188 167.929688 144.34375 168.125 L 134.398438 175.019531 C 133.835938 175.40625 133.15625 175.429688 132.574219 175.074219 C 132.125 174.792969 131.683594 174.21875 131.792969 173.421875 L 135.386719 147.203125 C 135.429688 146.871094 135.199219 146.570312 134.867188 146.519531 C 134.53125 146.476562 134.230469 146.707031 134.179688 147.042969 L 130.585938 173.257812 C 130.429688 174.40625 130.945312 175.496094 131.9375 176.101562 C 132.410156 176.390625 132.925781 176.53125 133.449219 176.53125 C 134.019531 176.53125 134.59375 176.355469 135.089844 176.011719 L 145.035156 169.117188 C 145.316406 168.929688 145.382812 168.554688 145.1875 168.273438 Z M 94.191406 117.285156 C 93.859375 117.328125 93.628906 117.628906 93.664062 117.960938 C 93.699219 118.246094 94.386719 124.796875 84.566406 126.898438 C 87.558594 120.351562 79.6875 107.222656 79.3125 106.601562 C 79.136719 106.316406 78.765625 106.226562 78.480469 106.394531 C 78.195312 106.570312 78.105469 106.941406 78.273438 107.222656 C 78.371094 107.386719 88.128906 123.644531 82.113281 128.09375 C 80.0625 129.609375 78.238281 130.226562 76.84375 129.875 C 75.777344 129.609375 75.207031 128.863281 74.984375 128.511719 C 75.480469 126.953125 75.578125 125.25 75.164062 123.550781 C 73.765625 117.726562 69.710938 111.898438 69.535156 111.648438 C 69.339844 111.375 68.964844 111.308594 68.691406 111.496094 C 68.417969 111.683594 68.351562 112.066406 68.539062 112.339844 C 68.582031 112.398438 72.636719 118.230469 73.984375 123.828125 C 74.359375 125.382812 74.25 126.9375 73.757812 128.355469 C 73.753906 128.367188 73.753906 128.375 73.746094 128.386719 C 72.90625 130.777344 70.953125 132.738281 68.328125 133.507812 L 67.734375 133.683594 C 69.328125 125.855469 57.96875 117.738281 57.46875 117.382812 C 57.195312 117.1875 56.8125 117.253906 56.625 117.527344 C 56.4375 117.800781 56.496094 118.179688 56.769531 118.367188 C 56.890625 118.453125 68.972656 127.078125 66.296875 134.355469 C 64.554688 139.117188 59.746094 138.765625 58.316406 138.542969 C 55.339844 138.082031 53.285156 136.496094 53.230469 135.308594 C 53.21875 134.976562 52.941406 134.730469 52.601562 134.730469 C 52.265625 134.742188 52.007812 135.027344 52.019531 135.359375 C 52.105469 137.332031 54.726562 139.214844 58.128906 139.734375 C 58.660156 139.820312 59.214844 139.863281 59.769531 139.863281 C 62.722656 139.863281 65.867188 138.601562 67.3125 135.054688 L 68.667969 134.65625 C 71.296875 133.882812 73.335938 132.066406 74.457031 129.789062 C 74.800781 130.160156 75.28125 130.550781 75.929688 130.824219 C 70.191406 133.695312 69.261719 138.917969 69.21875 139.160156 C 69.164062 139.488281 69.390625 139.800781 69.71875 139.855469 C 69.753906 139.863281 69.785156 139.863281 69.820312 139.863281 C 70.109375 139.863281 70.367188 139.652344 70.417969 139.359375 C 70.460938 139.117188 71.488281 133.46875 78.25 131.171875 C 78.285156 131.15625 78.3125 131.132812 78.335938 131.121094 C 79.691406 130.945312 81.195312 130.257812 82.820312 129.050781 C 83.191406 128.777344 83.5 128.46875 83.773438 128.136719 C 83.855469 128.179688 83.941406 128.210938 84.039062 128.210938 C 84.074219 128.210938 84.113281 128.203125 84.148438 128.199219 C 95.796875 126.03125 94.863281 117.871094 94.851562 117.785156 C 94.820312 117.476562 94.523438 117.242188 94.191406 117.285156 Z M 58.515625 134.71875 C 58.722656 134.71875 58.929688 134.609375 59.039062 134.421875 C 59.207031 134.128906 59.109375 133.761719 58.824219 133.589844 L 50.933594 128.953125 C 50.644531 128.785156 50.273438 128.882812 50.105469 129.167969 C 49.933594 129.457031 50.03125 129.828125 50.316406 129.996094 L 58.207031 134.632812 C 58.308594 134.691406 58.414062 134.71875 58.515625 134.71875 Z M 150.460938 204.453125 L 138.289062 203.21875 C 137.945312 203.1875 137.660156 203.429688 137.625 203.757812 C 137.585938 204.089844 137.828125 204.386719 138.164062 204.421875 L 150.332031 205.660156 C 150.359375 205.660156 150.375 205.660156 150.394531 205.660156 C 150.703125 205.660156 150.964844 205.429688 150.996094 205.113281 C 151.035156 204.78125 150.792969 204.484375 150.460938 204.453125 Z M 150.460938 204.453125 " fill-opacity="1" fill-rule="nonzero"/></svg>